<svg width="158" height="127" viewBox="0 0 158 127" fill="none" xmlns="http://www.w3.org/2000/svg">
<path d="M147.524 119.4L131.889 103.765C129.7 105.016 127.354 106.058 124.853 106.892C122.351 107.726 119.693 108.143 116.879 108.143C109.061 108.143 102.417 105.408 96.9463 99.9372C91.4759 94.4669 88.7387 87.8207 88.7345 79.9988C88.7303 72.1768 91.4676 65.5328 96.9463 60.0666C102.425 54.6004 109.069 51.8631 116.879 51.8548C124.688 51.8465 131.334 54.5837 136.817 60.0666C142.3 65.5494 145.035 72.1935 145.023 79.9988C145.023 82.8132 144.606 85.4712 143.772 87.9729C142.938 90.4746 141.895 92.8199 140.645 95.0089L156.28 110.644C157.427 111.791 158 113.25 158 115.022C158 116.794 157.427 118.254 156.28 119.4C155.133 120.547 153.674 121.12 151.902 121.12C150.13 121.12 148.671 120.547 147.524 119.4ZM116.879 95.6343C121.256 95.6343 124.957 94.1229 127.98 91.1C131.003 88.0771 132.514 84.3767 132.514 79.9988C132.514 75.6208 131.003 71.9204 127.98 68.8975C124.957 65.8747 121.256 64.3632 116.879 64.3632C112.501 64.3632 108.8 65.8747 105.777 68.8975C102.754 71.9204 101.243 75.6208 101.243 79.9988C101.243 84.3767 102.754 88.0771 105.777 91.1C108.8 94.1229 112.501 95.6343 116.879 95.6343Z" fill="white"/>
<path d="M70.5973 6.74935C78.2107 3.46797 86.3412 1.82519 94.9887 1.82102C108.227 1.82102 120.033 5.46932 130.406 12.7659C140.78 20.0625 148.31 29.4959 152.997 41.0663C153.726 42.8383 153.753 44.6103 153.078 46.3823C152.402 48.1544 151.177 49.3531 149.4 49.9785C147.733 50.4997 146.144 50.3434 144.635 49.5095C143.125 48.6756 142.056 47.4247 141.426 45.7569C138.925 39.5027 135.328 33.9781 130.638 29.1832C125.947 24.3883 120.318 20.6879 113.751 18.082V20.5837C113.751 24.0235 112.528 26.9692 110.08 29.4209C107.633 31.8726 104.687 33.0963 101.243 33.0921H91.6964C74.0624 30.7411 65.8333 17.8095 63.7892 10.1476C65.9626 8.90154 68.2319 7.7688 70.5973 6.74935Z" fill="white"/>
<path d="M76.2261 64.3632C77.9981 64.3632 79.4845 64.9636 80.6853 66.1644C81.8861 67.3653 82.4844 68.8496 82.4803 70.6175V83.1259H76.2261L66.6414 73.5412C67.4471 71.5802 70.2212 66.9991 74.8719 64.3632H76.2261Z" fill="white"/>
<path d="M57.5447 97.667C65.9379 107.153 76.4908 112.625 89.2036 114.084C90.8714 114.293 92.2535 114.997 93.3501 116.198C94.4467 117.399 94.9929 118.883 94.9887 120.651C94.9846 122.419 94.3841 123.906 93.1875 125.11C91.9909 126.315 90.5586 126.81 88.8909 126.593C72.9426 125.029 59.5481 118.358 48.7075 106.579C45.6829 103.293 43.0802 99.8279 40.8994 96.1845C43.0568 98.2738 49.2178 101.277 56.6025 96.5743C56.9105 96.9409 57.2245 97.3051 57.5447 97.667Z" fill="white"/>
<path d="M36.6572 7.07534C39.7833 -2.07274 52.4234 -2.34979 56.1297 6.24417L56.4433 7.08056L60.6619 19.4174C61.6287 22.2467 63.191 24.8357 65.2435 27.0099C67.2959 29.1841 69.7908 30.8928 72.5597 32.0208L73.6941 32.4442L86.031 36.6576C95.1791 39.7836 95.4562 52.4236 86.8674 56.1299L86.031 56.4436L73.6941 60.6621C70.8638 61.6283 68.2737 63.1903 66.0986 65.2427C63.9235 67.2952 62.2139 69.7904 61.0853 72.5598L60.6619 73.689L56.4485 86.031C53.3225 95.1791 40.6824 95.4562 36.9813 86.8674L36.6572 86.031L32.4439 73.6942C31.4777 70.864 29.9157 68.2739 27.8632 66.0988C25.8107 63.9237 23.3156 62.2141 20.5461 61.0855L19.4169 60.6621L7.08001 56.4488C-2.07334 53.3227 -2.3504 40.6827 6.24361 36.9817L7.08001 36.6576L19.4169 32.4442C22.2462 31.4775 24.8353 29.9152 27.0095 27.8627C29.1837 25.8103 30.8924 23.3155 32.0204 20.5465L32.4439 19.4174L36.6572 7.07534Z" fill="white"/>
</svg>
