<svg width="8" height="8" viewBox="0 0 8 8" fill="none" xmlns="http://www.w3.org/2000/svg">
<path d="M3.46446 7.82701C3.62065 7.93843 3.80776 7.99824 3.99962 7.99806C4.19148 7.99788 4.37848 7.93772 4.53446 7.82601C4.69038 7.70946 4.80889 7.54994 4.87546 7.36701L5.22246 6.30001C5.30569 6.04862 5.4465 5.82016 5.63366 5.63283C5.82082 5.44549 6.04915 5.30447 6.30046 5.22101L7.38646 4.86801C7.56858 4.80268 7.72557 4.68178 7.83524 4.52237C7.94491 4.36297 8.00172 4.17314 7.99763 3.9797C7.99354 3.78625 7.92876 3.59899 7.81245 3.44436C7.69614 3.28974 7.53418 3.17558 7.34946 3.11801L6.28046 2.77201C6.02889 2.68891 5.80023 2.54816 5.61271 2.36099C5.4252 2.17383 5.28403 1.94542 5.20046 1.69401L4.84746 0.610008C4.7834 0.431001 4.66545 0.276238 4.50983 0.167003C4.35422 0.0577692 4.16858 -0.000570284 3.97846 8.33508e-06C3.78561 -0.000812336 3.59738 0.0589884 3.44037 0.17096C3.28336 0.282932 3.1655 0.441414 3.10346 0.624008L2.74746 1.71401C2.66386 1.95797 2.52617 2.17986 2.34468 2.36308C2.16319 2.5463 1.94262 2.6861 1.69946 2.77201L0.615459 3.12301C0.434367 3.187 0.277749 3.3059 0.167432 3.46313C0.0571155 3.62035 -0.00140521 3.80808 2.56258e-05 4.00014C0.00145646 4.1922 0.0627675 4.37904 0.175415 4.5346C0.288062 4.69017 0.446433 4.80672 0.628459 4.86801L1.69546 5.21501C1.94737 5.29917 2.17622 5.44086 2.36386 5.62885C2.55149 5.81683 2.69276 6.04594 2.77646 6.29801L3.12846 7.37801C3.19146 7.55801 3.30946 7.71501 3.46546 7.82601" fill="black"/>
</svg>
